<svg aria-hidden="true" style="position:absolute;width:0;height:0;overflow:hidden" xmlns="http://www.w3.org/2000/svg"><defs><symbol id="icon-client-6" viewBox="0 0 67 32"><path fill="#afb1b8" style="fill:var(--color1)" d="M33.724 15.224a2.095 2.095 0 0 1-.43-1.414v-2.05c0-.628.142-1.106.428-1.433s.775-.489 1.469-.488c.652 0 1.115.139 1.389.417.299.355.444.789.411 1.226v.482h-1.167v-.488a2.476 2.476 0 0 0-.034-.478.467.467 0 0 0-.167-.284.681.681 0 0 0-.423-.111.711.711 0 0 0-.444.117.544.544 0 0 0-.193.313 2.398 2.398 0 0 0-.046.507v2.488c-.018.24.033.48.15.699.058.074.139.132.233.169s.198.05.301.039a.632.632 0 0 0 .413-.113.505.505 0 0 0 .174-.302c.027-.165.039-.332.036-.498v-.505h1.167v.461c.033.456-.109.909-.403 1.289-.268.305-.725.457-1.396.457s-1.179-.163-1.466-.501zM38.583 15.245c-.295-.319-.442-.784-.442-1.4v-2.157c0-.609.147-1.07.442-1.383s.788-.469 1.478-.467c.686 0 1.177.156 1.471.467.295.313.444.774.444 1.383v2.157c0 .609-.15 1.076-.449 1.397s-.788.482-1.466.482c-.679 0-1.181-.163-1.478-.48zm2.022-.518c.106-.2.154-.419.14-.638v-2.641a1.17 1.17 0 0 0-.138-.626c-.059-.075-.142-.135-.238-.172s-.203-.05-.308-.037c-.105-.013-.212 0-.308.037s-.18.096-.24.172a1.15 1.15 0 0 0-.14.626v2.653c-.015.219.033.439.14.638.068.067.152.121.246.158a.82.82 0 0 0 .6 0 .732.732 0 0 0 .246-.158v-.012zM43.38 9.901h1.256l.945 3.979.966-3.979h1.222l.123 5.743h-.904l-.097-3.992-.932 3.992h-.725l-.966-4.006-.089 4.006h-.913l.114-5.743zM49.301 9.901h1.957c1.127 0 1.691.544 1.691 1.631 0 1.041-.593 1.561-1.78 1.56h-.667v2.553h-1.208l.007-5.743zm1.672 2.455c.119.013.24.004.355-.028s.22-.084.309-.154a.928.928 0 0 0 .174-.649 1.801 1.801 0 0 0-.058-.521c-.017-.057-.047-.111-.089-.158s-.093-.086-.153-.116a1.262 1.262 0 0 0-.539-.092h-.469v1.716h.469zM54.691 9.901h1.297l1.331 5.743h-1.126l-.263-1.324h-1.157l-.271 1.324h-1.143l1.331-5.743zm1.109 3.754-.452-2.411-.452 2.411h.903zM58.395 9.901h.846l1.619 3.276V9.901h1.003v5.743h-.804l-1.628-3.42v3.42h-1.036l.002-5.743zM64.209 13.455l-1.346-3.546h1.133l.821 2.277.771-2.277h1.109l-1.329 3.546v2.19h-1.16v-2.19zM35.589 18.156v.3h-.986v2.334h-.413v-2.334h-.99v-.3h2.389zM38.679 20.79h-.319a.139.139 0 0 1-.089-.025.133.133 0 0 1-.053-.06l-.285-.626h-1.367l-.285.626a.172.172 0 0 1-.044.071.152.152 0 0 1-.089.025h-.319l1.208-2.634h.42l1.222 2.624zm-2-.978h1.14l-.483-1.072a1.75 1.75 0 0 1-.089-.248c-.017.05-.031.098-.046.14l-.044.11-.478 1.07zM40.762 20.532c.076.003.151.003.227 0a1.72 1.72 0 0 0 .367-.079c.053-.019.106-.042.162-.065v-.592h-.483c-.012.001-.024-.001-.035-.005s-.021-.009-.03-.016a.062.062 0 0 1-.024-.048v-.202h.937v1.01a1.842 1.842 0 0 1-.51.215c-.099.025-.2.043-.302.054a3.775 3.775 0 0 1-.353.017 1.842 1.842 0 0 1-.609-.098 1.485 1.485 0 0 1-.483-.275 1.293 1.293 0 0 1-.312-.417 1.316 1.316 0 0 1-.111-.547 1.352 1.352 0 0 1 .109-.551c.069-.156.176-.298.312-.417.138-.119.302-.212.483-.273.207-.067.426-.1.647-.098.112 0 .225.008.336.023a1.65 1.65 0 0 1 .53.171c.074.041.144.087.21.138l-.116.163c-.009.015-.023.027-.039.036s-.036.014-.055.014a.16.16 0 0 1-.075-.021 1.582 1.582 0 0 1-.118-.063 1.02 1.02 0 0 0-.162-.071 1.508 1.508 0 0 0-.529-.081 1.407 1.407 0 0 0-.466.073 1.026 1.026 0 0 0-.355.209.918.918 0 0 0-.225.328 1.23 1.23 0 0 0 0 .878.938.938 0 0 0 .242.332c.099.09.219.162.353.209.154.046.316.063.478.052zM44.612 20.49h1.319v.3h-1.722v-2.634h.413l-.01 2.334zM47.304 20.79h-.413v-2.634h.413v2.634zM48.84 18.168a.189.189 0 0 1 .063.048l1.766 1.986a.737.737 0 0 1 0-.094v-1.962h.36v2.645h-.208a.19.19 0 0 1-.089-.015.23.23 0 0 1-.065-.05l-1.764-1.984v2.048h-.345v-2.634h.215c.023 0 .046.004.068.012zM54.07 18.156v.29h-1.464v.87h1.186v.279h-1.186v.899h1.464v.29h-1.889v-2.628h1.889zM10.782 1.888l18.343 4.497v15.757l-18.343-4.494V1.889zM9.605.545v17.867l20.694 5.074V5.621L9.605.545z"/><path fill="#afb1b8" style="fill:var(--color1)" d="M20.696 31.781 0 26.702V8.836l20.696 5.076V31.78z"/><path fill="#afb1b8" style="fill:var(--color1" d="m9.948 1.686 18.104 4.44-7.699 6.649L2.247 8.333l7.702-6.647zM9.605.545 0 8.837l20.696 5.076 9.603-8.292L9.605.545zM21.861 30.776l8.438-7.287-8.438-2.071v9.358z"/></symbol><symbol id="icon-client-5" viewBox="0 0 43 32"><path fill="#afb1b8" style="fill:var(--color1)" d="M3.239 26.373a.98.98 0 0 1 .25.665c.008.158-.022.315-.089.46s-.169.275-.298.38a1.788 1.788 0 0 1-1.125.307H0V23.97h1.937c.382-.023.761.076 1.073.28.125.096.224.217.289.354s.095.286.086.435a.923.923 0 0 1-.225.645 1.06 1.06 0 0 1-.589.329c.262.044.499.172.668.36zM.92 25.737h.828a.835.835 0 0 0 .526-.14c.062-.052.111-.116.141-.187s.043-.148.036-.225c.006-.076-.007-.153-.037-.224s-.078-.135-.138-.188a.858.858 0 0 0-.542-.142H.92v1.106zm1.435 1.616c.066-.053.119-.119.153-.193s.049-.155.043-.235c.005-.081-.01-.163-.045-.238s-.088-.142-.155-.195a.907.907 0 0 0-.562-.152H.921v1.159H1.8a.93.93 0 0 0 .556-.146zM7.197 28.185 6.12 26.538h-.405v1.647h-.927V23.97h1.754c.442-.028.879.1 1.221.358.245.229.393.53.417.85s-.078.637-.287.894a1.46 1.46 0 0 1-.837.428l1.147 1.684H7.195zm-1.482-2.222h.758c.526 0 .789-.213.789-.638a.586.586 0 0 0-.193-.473.87.87 0 0 0-.596-.171h-.767l.009 1.283zM12.262 27.337h-1.847l-.326.848h-.972l1.696-4.168h1.05l1.689 4.168h-.972l-.319-.848zm-.247-.639-.675-1.779-.675 1.779h1.349zM18.602 28.185h-.92l-2.062-2.867v2.867h-.918V23.97h.918l2.062 2.883V23.97h.92v4.215zM23.852 27.176c-.19.318-.48.577-.832.743-.4.185-.845.276-1.293.266H20.09V23.97h1.637c.448-.011.891.078 1.293.259.352.163.642.419.832.735.189.343.288.722.288 1.106s-.099.763-.288 1.106zm-1.053-.101c.263-.28.407-.637.407-1.006s-.144-.726-.407-1.006a1.692 1.692 0 0 0-1.152-.358h-.639v2.729h.639a1.7 1.7 0 0 0 1.152-.358zM12.838.522s11.873 4.104 11.621 10.043V20.61s-11.864-4.106-11.617-10.045L12.837.522zM35.037 18.259c2.242-1.413 4.836-2.288 7.544-2.545v-3.145c-3.12 1.101-5.766 3.097-7.544 5.69z"/><path fill="#afb1b8" style="fill:var(--color1)" d="M33.69 19.206c1.835-3.384 5.017-5.995 8.891-7.296V2.849S25.672 8.695 26.03 17.153v14.302s.753-.262 1.939-.752c0-.457 0-.918.054-1.382.35-3.926 2.389-7.565 5.668-10.115z"/><path fill="#afb1b8" style="fill:var(--color1)" d="M32.081 24.52a13.62 13.62 0 0 1 .592-2.928c-2.042 2.203-3.278 4.936-3.536 7.815-.025.272-.038.544-.045.824a50.77 50.77 0 0 0 3.252-1.569 13.564 13.564 0 0 1-.263-4.141zM32.754 24.571a12.973 12.973 0 0 0 .209 3.75c4.62-2.531 9.811-6.442 9.611-11.168v-.412c-3.301.338-6.389 1.659-8.79 3.76a13.125 13.125 0 0 0-1.03 4.069z"/></symbol><symbol id="icon-client-4" viewBox="0 0 65 32"><path fill="#2196f3" style="fill:var(--color2)" d="M10.016 9.983h-.002c-1.827 0-3.308 1.316-3.308 2.94v.002c0 1.624 1.481 2.94 3.308 2.94h.002c1.827 0 3.308-1.316 3.308-2.94v-.002c0-1.624-1.481-2.94-3.308-2.94zM34.434 9.043c-.005-2.255-1.015-4.417-2.81-6.012S27.398.538 24.86.533c-2.538.004-4.972.902-6.767 2.497s-2.806 3.757-2.811 6.013v12.436s19.149-1.895 19.151-12.434v-.002zM0 25.562c.005 1.569.708 3.073 1.956 4.183s2.94 1.735 4.706 1.74c1.765-.005 3.457-.63 4.705-1.739s1.952-2.613 1.957-4.182V16.91S-.001 18.23-.001 25.562zm6.662 1.55c-.345 0-.682-.091-.969-.261s-.511-.413-.643-.696-.167-.595-.099-.896.233-.577.477-.794.555-.364.893-.424c.338-.06.689-.029 1.008.088s.591.316.783.571a1.404 1.404 0 0 1 .163 1.456c-.087.189-.216.36-.378.505-.162.145-.355.259-.567.338s-.439.119-.669.119v-.006zM20.128 26.258h-1.286v1.328h-.67v-3.25h2.116v.542h-1.446v.839h1.286v.54zm3.218-.223c0 .32-.057.6-.17.842s-.275.427-.487.558c-.21.131-.451.196-.723.196a1.289 1.289 0 0 1-1.212-.748 1.907 1.907 0 0 1-.176-.83v-.161c0-.32.057-.601.172-.844a1.285 1.285 0 0 1 1.212-.756c.271 0 .511.065.721.196.211.129.374.316.489.56.116.242.174.523.174.841v.145zm-.678-.147c0-.341-.061-.6-.183-.777s-.296-.266-.522-.266a.596.596 0 0 0-.52.263c-.122.174-.184.43-.185.768v.158c0 .332.061.589.183.772s.298.275.527.275a.592.592 0 0 0 .518-.263c.121-.177.182-.434.183-.772v-.158zm2.85.846a.342.342 0 0 0-.134-.29c-.089-.068-.25-.14-.482-.214a3.465 3.465 0 0 1-.551-.223c-.369-.199-.554-.468-.554-.806 0-.176.049-.332.147-.469a.985.985 0 0 1 .426-.324c.186-.077.394-.116.625-.116.232 0 .439.042.621.127a.978.978 0 0 1 .422.355.926.926 0 0 1 .152.522h-.67a.434.434 0 0 0-.141-.346c-.094-.083-.225-.125-.395-.125-.164 0-.291.035-.382.105a.323.323 0 0 0-.136.272c0 .106.053.194.158.266.107.071.264.138.471.201.381.115.659.257.833.426s.261.381.261.634a.785.785 0 0 1-.319.663c-.213.159-.499.239-.859.239-.25 0-.478-.045-.683-.136a1.1 1.1 0 0 1-.471-.377.97.97 0 0 1-.161-.554h.672c0 .359.214.538.643.538a.631.631 0 0 0 .373-.096.318.318 0 0 0 .134-.272zm3.574-1.855h-.996v2.708h-.67v-2.708h-.982v-.542h2.647v.542zm2.339 1.299h-1.286v.871h1.509v.538h-2.179v-3.25h2.174v.542h-1.504v.775h1.286v.525zm1.82.218h-.533v1.19h-.67v-3.25h1.208c.384 0 .68.086.888.257s.312.413.312.725a.998.998 0 0 1-.145.556.979.979 0 0 1-.435.353l.703 1.328v.031h-.719l-.609-1.19zm-.534-.542h.54c.168 0 .298-.042.391-.127a.463.463 0 0 0 .138-.355.49.49 0 0 0-.132-.362c-.086-.088-.219-.132-.4-.132h-.538v.975zm4.058.587v1.145h-.67v-3.25h1.268c.244 0 .458.045.643.134a.98.98 0 0 1 .429.382c.1.164.15.35.15.56 0 .318-.109.57-.328.754-.217.183-.519.275-.904.275h-.587zm0-.542h.598c.177 0 .312-.042.404-.125.094-.083.141-.202.141-.357 0-.159-.047-.288-.141-.386s-.223-.149-.388-.152h-.614v1.02zm4.237.279h-1.286v.871h1.509v.538h-2.179v-3.25h2.174v.542h-1.504v.775h1.286v.525zm3.107-1.299h-.995v2.708h-.67v-2.708h-.982v-.542h2.647v.542zm2.339 1.299h-1.286v.871h1.509v.538h-2.178v-3.25h2.174v.542h-1.504v.775h1.286v.525zm1.819.218h-.533v1.19h-.67v-3.25h1.208c.384 0 .68.086.888.257s.313.413.313.725a.998.998 0 0 1-.145.556.979.979 0 0 1-.435.353l.703 1.328v.031h-.719l-.609-1.19zm-.533-.542h.54c.168 0 .298-.042.391-.127a.463.463 0 0 0 .138-.355.49.49 0 0 0-.132-.362c-.086-.088-.219-.132-.4-.132h-.538v.975zm3.935.88a.342.342 0 0 0-.134-.29c-.089-.068-.25-.14-.482-.214a3.465 3.465 0 0 1-.551-.223c-.369-.199-.554-.468-.554-.806 0-.176.049-.332.147-.469a.985.985 0 0 1 .426-.324c.186-.077.394-.116.625-.116.232 0 .439.042.621.127a.973.973 0 0 1 .422.355.926.926 0 0 1 .152.522h-.67a.434.434 0 0 0-.141-.346c-.094-.083-.225-.125-.395-.125-.164 0-.291.035-.382.105a.323.323 0 0 0-.136.272c0 .106.053.194.158.266.107.071.264.138.471.201.381.115.658.257.833.426s.261.381.261.634a.785.785 0 0 1-.319.663c-.213.159-.499.239-.859.239-.25 0-.478-.045-.683-.136a1.1 1.1 0 0 1-.471-.377.97.97 0 0 1-.161-.554h.672c0 .359.214.538.643.538a.634.634 0 0 0 .373-.096.318.318 0 0 0 .134-.272z"/></symbol><symbol id="icon-client-3" viewBox="0 0 34 32"><path fill="#afb1b8" style="fill:var(--color1)" d="M5.643 31.315a.095.095 0 0 1 .064.025l.166.159a1.373 1.373 0 0 1-.467.302c-.21.076-.435.113-.663.108a1.77 1.77 0 0 1-.623-.101 1.37 1.37 0 0 1-.469-.285 1.277 1.277 0 0 1-.303-.44 1.472 1.472 0 0 1-.106-.565 1.31 1.31 0 0 1 .436-1.007c.142-.124.312-.222.499-.287.205-.069.422-.103.642-.101.204-.004.407.027.596.092.165.062.316.148.447.255l-.139.17a.173.173 0 0 1-.035.031.097.097 0 0 1-.056.013.136.136 0 0 1-.06-.018l-.075-.045-.104-.058a1.3 1.3 0 0 0-.139-.056 1.46 1.46 0 0 0-.436-.063 1.328 1.328 0 0 0-.461.076c-.136.048-.26.121-.361.213a.987.987 0 0 0-.235.339 1.155 1.155 0 0 0-.085.448 1.17 1.17 0 0 0 .085.455.994.994 0 0 0 .231.338.938.938 0 0 0 .345.209c.136.049.281.073.428.072.085.001.17-.004.253-.014a1.01 1.01 0 0 0 .548-.233.127.127 0 0 1 .079-.029zM10.441 30.517c.003.192-.035.382-.112.561-.068.163-.174.311-.313.436s-.306.222-.491.286a2.02 2.02 0 0 1-1.263 0 1.454 1.454 0 0 1-.488-.287 1.288 1.288 0 0 1-.316-.44 1.462 1.462 0 0 1 0-1.125c.071-.164.178-.314.316-.442.139-.12.305-.214.488-.276a1.992 1.992 0 0 1 1.263 0c.185.065.351.163.49.287.137.125.243.273.314.435.077.181.115.372.112.565zm-.436 0a1.186 1.186 0 0 0-.079-.451.941.941 0 0 0-.222-.338.971.971 0 0 0-.351-.213 1.456 1.456 0 0 0-.918 0 .971.971 0 0 0-.351.213.897.897 0 0 0-.224.338 1.322 1.322 0 0 0 0 .903.926.926 0 0 0 .575.549 1.5 1.5 0 0 0 .918 0 .98.98 0 0 0 .351-.211.933.933 0 0 0 .222-.338c.056-.145.082-.298.079-.451zM13.715 30.99l.044.101c.017-.036.031-.069.048-.101a.95.95 0 0 1 .054-.099l1.062-1.677c.021-.029.039-.047.06-.052a.283.283 0 0 1 .087-.009h.314v2.727h-.372v-2.09a.737.737 0 0 1 0-.094l-1.068 1.7c-.014.025-.035.047-.063.062s-.059.023-.091.023h-.06c-.032 0-.064-.007-.091-.022s-.049-.037-.062-.062l-1.099-1.711v2.189h-.359v-2.722h.314a.28.28 0 0 1 .087.009c.026.011.046.03.058.052l1.084 1.678a.662.662 0 0 1 .054.097zM17.71 30.855v1.021h-.415v-2.723h.926c.175-.003.349.017.517.059.134.033.259.091.366.17a.713.713 0 0 1 .208.267.825.825 0 0 1 .071.348.771.771 0 0 1-.301.621 1.062 1.062 0 0 1-.368.18 1.757 1.757 0 0 1-.501.063l-.503-.007zm0-.293h.503a1.2 1.2 0 0 0 .322-.041.71.71 0 0 0 .233-.117.526.526 0 0 0 .191-.409c.005-.076-.009-.151-.042-.222s-.082-.134-.145-.186a.889.889 0 0 0-.559-.146h-.503v1.122zM23.294 31.88h-.328a.158.158 0 0 1-.091-.025.17.17 0 0 1-.054-.063l-.282-.659H21.12l-.293.659a.152.152 0 0 1-.145.088h-.328l1.246-2.727h.432l1.263 2.727zm-2.057-1.013h1.172l-.494-1.11a1.746 1.746 0 0 1-.093-.256l-.048.143a1.122 1.122 0 0 1-.046.116l-.49 1.108zM25.089 29.165a.178.178 0 0 1 .062.049l1.818 2.056v-2.117h.372v2.727h-.208a.201.201 0 0 1-.085-.016.24.24 0 0 1-.067-.05l-1.816-2.054a.737.737 0 0 1 0 .094v2.027h-.372v-2.727h.22a.191.191 0 0 1 .075.013zM30.402 30.795v1.083h-.415v-1.083l-1.149-1.642h.372a.15.15 0 0 1 .089.023.23.23 0 0 1 .056.061l.719 1.059a1.064 1.064 0 0 1 .127.242l.054-.117a.975.975 0 0 1 .071-.125l.708-1.067a.295.295 0 0 1 .054-.058.14.14 0 0 1 .089-.027h.376l-1.151 1.65zM13.51 24.576c.181.02.364.036.548.051 2.803-1.089 5.174-2.873 6.817-5.126s2.485-4.878 2.421-7.546l-3.089-2.684c.628 2.84.334 5.776-.849 8.479s-3.208 5.067-5.849 6.827z"/><path fill="#afb1b8" style="fill:var(--color1)" d="m12.407 24.451.083.014c2.822-1.754 4.974-4.203 6.176-7.03s1.402-5.904.571-8.83l-4.4-3.823c1.78 3.142 2.496 6.659 2.066 10.141s-1.989 6.786-4.496 9.528zM27.328 15.106c-.747 2.931-2.563 5.574-5.177 7.537a16.49 16.49 0 0 1-2.46 1.534c2.128-.544 4.085-1.504 5.718-2.809s2.9-2.917 3.703-4.714l-1.784-1.549z"/><path fill="#afb1b8" style="fill:var(--color1)" d="m26.628 14.674-2.541-2.207c-.049 2.517-.872 4.976-2.385 7.123s-3.66 3.902-6.217 5.084h.012c.57 0 1.139-.03 1.705-.088 2.39-.848 4.502-2.196 6.147-3.926s2.771-3.785 3.278-5.985zM12.774 3.17 9.743.533c-2.709.91-5.04 2.509-6.686 4.588S.526 9.663.517 12.187c.01 2.789 1.09 5.495 3.07 7.69s4.745 3.754 7.859 4.43c2.78-2.942 4.407-6.579 4.646-10.38s-.924-7.569-3.319-10.757zM33.63 14.268c-.011-3.309-1.529-6.479-4.221-8.818s-6.342-3.658-10.15-3.668a16.144 16.144 0 0 0-5.146.832L32.67 18.737a10.94 10.94 0 0 0 .96-4.469z"/></symbol><symbol id="icon-client-2" viewBox="0 0 28 32"><path fill="#afb1b8" style="fill:var(--color1)" d="m4.085 0 4.771 4.517L0 4.512v21.915h23.149v-8.379l4.766 4.512V.001H4.085zm18.854 17.517L9.411 4.71h13.528v12.807zm-4.2 5.704H3.663V8.482h1.066v13.741h14.01v.998zM7.223 29.344h.465l-.811 1.529v.891h-.422v-.891l-.813-1.529h.467l.557 1.147.557-1.147zm.7 2.42.196-.563h.938l.198.563h.439l-.916-2.42h-.377l-.914 2.42h.437zm.665-1.906.351 1.004h-.701l.351-1.004zm2.217.946c.061-.094.181-.206.361-.334a1.556 1.556 0 0 1-.198-.303.588.588 0 0 1-.055-.241c0-.189.058-.339.173-.449a.641.641 0 0 1 .465-.166.61.61 0 0 1 .432.156c.113.103.17.231.17.384a.532.532 0 0 1-.076.279.931.931 0 0 1-.251.253l-.165.12.467.552a.96.96 0 0 0 .101-.444h.351c0 .298-.07.542-.209.733l.356.421h-.469l-.136-.161c-.173.13-.379.194-.618.194s-.431-.063-.575-.189a.633.633 0 0 1-.214-.497c0-.112.03-.214.091-.307zm1.092.535-.529-.623-.052.037c-.133.101-.2.216-.2.346 0 .112.036.203.108.273s.168.105.289.105a.614.614 0 0 0 .382-.136zm-.434-1.072.184-.126.052-.042a.298.298 0 0 0 .103-.234.21.21 0 0 0-.072-.161.254.254 0 0 0-.181-.068c-.079 0-.141.027-.188.08s-.07.12-.07.201c0 .093.057.21.171.351zm3.94 1.314c-.166.144-.387.216-.663.216a.949.949 0 0 1-.51-.136c-.146-.092-.259-.222-.339-.391s-.121-.364-.125-.587v-.226c0-.228.04-.429.121-.603s.197-.308.347-.402a.978.978 0 0 1 .525-.141c.267 0 .482.073.645.218s.258.35.284.615h-.419c-.02-.174-.071-.299-.153-.376-.081-.078-.2-.116-.357-.116a.491.491 0 0 0-.422.201c-.098.133-.147.329-.15.587v.214c0 .262.046.461.14.598s.232.206.412.206c.165 0 .289-.037.372-.111s.136-.198.158-.371h.419c-.024.258-.12.46-.286.605zm2.472-.339a.939.939 0 0 1-.352.412.97.97 0 0 1-.525.143.98.98 0 0 1-.525-.143.95.95 0 0 1-.356-.411 1.446 1.446 0 0 1-.126-.613v-.136c0-.236.042-.444.125-.625a.939.939 0 0 1 .354-.414c.153-.096.328-.145.525-.145s.372.048.524.143c.153.094.271.23.354.409s.125.384.126.62v.135c0 .237-.041.445-.123.625zm-.451-1.368a.494.494 0 0 0-.43-.214.499.499 0 0 0-.427.214c-.102.142-.154.343-.156.603v.14c0 .266.052.472.155.617a.503.503 0 0 0 .432.218.493.493 0 0 0 .429-.213c.101-.142.151-.349.151-.622v-.126c0-.268-.051-.474-.153-.617z"/></symbol><symbol id="icon-client-1" viewBox="0 0 25 32"><path fill="#afb1b8" style="fill:var(--color1)" d="M10.531 1.806c.142 0 .294.013.446.026l.045.004c.734.052 1.463.162 2.179.329V.403a12.974 12.974 0 0 0-2.249-.358 18.11 18.11 0 0 0-.909-.044H9.78a18.35 18.35 0 0 0-4.515.582 18.3 18.3 0 0 0-4.79 1.948v17.475a19.484 19.484 0 0 1 4.566-1.779 19.948 19.948 0 0 1 3.833-.588h.051c.216-.011.433-.017.655-.019v-1.79a21.155 21.155 0 0 0-4.982.662 23.81 23.81 0 0 0-1.731.513l-.623.211V3.591l.266-.128a17.409 17.409 0 0 1 6.471-1.651.523.523 0 0 1 .056 0c.248-.013.497-.019.741-.019h.28c.129.003.258.006.388.014h.084zm3.102 1.801c.391.03.796.044 1.205.044a19.352 19.352 0 0 0 4.747-.609c1.589-.4 3.123-.998 4.564-1.781v17.163a18.313 18.313 0 0 1-4.792 1.948 18.486 18.486 0 0 1-4.515.581 13.778 13.778 0 0 1-3.425-.404V3.274c.265.061.537.117.814.164.455.077.934.133 1.401.167zm8.734.133-.623.21c-.573.192-1.15.365-1.731.518a21.098 21.098 0 0 1-5.173.663c-.406 0-.78-.011-1.141-.034l-.497-.033v14.017l.427.038c.395.034.803.052 1.214.052a16.573 16.573 0 0 0 4.074-.527 17.107 17.107 0 0 0 3.184-1.144l.266-.128V3.742zM1.684 25.977a.912.912 0 0 0-.693-.28 1.034 1.034 0 0 0-.4.075.91.91 0 0 0-.512.518 1.023 1.023 0 0 0-.072.387v2.335c-.006.165.026.328.092.479.055.12.135.226.233.313a.815.815 0 0 0 .321.166c.114.032.231.048.349.049a.972.972 0 0 0 .892-.61.951.951 0 0 0 .075-.372v-.261h-.61v.208a.528.528 0 0 1-.036.208.359.359 0 0 1-.089.131.365.365 0 0 1-.128.067.425.425 0 0 1-.128.022.314.314 0 0 1-.286-.125.548.548 0 0 1-.081-.313v-2.177a.738.738 0 0 1 .075-.349.31.31 0 0 1 .299-.141.33.33 0 0 1 .272.131c.068.09.104.2.101.313v.202h.604v-.238a1.093 1.093 0 0 0-.279-.737zM5.31 25.95a1.051 1.051 0 0 0-1.38 0 .961.961 0 0 0-.237.327 1.099 1.099 0 0 0-.089.452v2.239a1.08 1.08 0 0 0 .089.459c.055.12.136.227.237.313a.94.94 0 0 0 .322.197 1.028 1.028 0 0 0 .728 0c.121-.044.233-.111.33-.197a.948.948 0 0 0 .23-.313 1.08 1.08 0 0 0 .089-.459v-2.239a1.08 1.08 0 0 0-.089-.452 1.015 1.015 0 0 0-.23-.327zm-.285 3.019a.405.405 0 0 1-.121.324.445.445 0 0 1-.574 0 .397.397 0 0 1-.121-.324V26.73a.405.405 0 0 1 .121-.324.445.445 0 0 1 .574 0 .397.397 0 0 1 .121.324v2.239zM10.072 29.969V25.73h-.587l-.771 2.244h-.011l-.777-2.244h-.581v4.239h.606V27.39h.011l.593 1.823h.302l.598-1.823h.011v2.579h.606zM13.513 26.027a.84.84 0 0 0-.343-.232 1.363 1.363 0 0 0-.439-.066h-.9v4.239h.604v-1.656h.311c.188.009.376-.031.545-.116a.882.882 0 0 0 .332-.324 1.02 1.02 0 0 0 .139-.369c.024-.16.035-.321.033-.482a2.421 2.421 0 0 0-.059-.606.898.898 0 0 0-.223-.39zm-.312 1.292a.547.547 0 0 1-.056.221.346.346 0 0 1-.156.149.619.619 0 0 1-.285.053h-.275v-1.441h.311a.578.578 0 0 1 .272.053.349.349 0 0 1 .142.157.62.62 0 0 1 .053.236v.282c0 .099.006.2 0 .291h-.006zM16.374 25.73h-.495l-.934 4.239h.604l.177-.911h.823l.177.911h.604l-.957-4.239zm-.557 2.751.297-1.537h.011l.296 1.537h-.604zM20.277 28.284h-.011l-.912-2.554h-.581v4.239h.604V27.42h.012l.923 2.549h.568V25.73h-.604v2.554zM23.968 25.73l-.486 1.685h-.012l-.486-1.685h-.64l.83 2.447v1.792h.604v-1.792l.83-2.447h-.64zM0 31.166h.291v.817h.198v-.817h.29v-.167H.001v.167zM2.447 30.998l-.381.984h.21l.081-.224h.392l.084.224h.215l-.391-.984h-.21zm-.031.595.134-.365.134.365h-.268zM4.866 31.62h.227v.127a.382.382 0 0 1-.234.083.244.244 0 0 1-.209-.093.411.411 0 0 1-.073-.257c0-.219.095-.329.283-.329a.206.206 0 0 1 .222.157l.195-.038c-.042-.192-.181-.289-.417-.289a.495.495 0 0 0-.344.127.494.494 0 0 0-.141.379.532.532 0 0 0 .126.369.477.477 0 0 0 .374.144.59.59 0 0 0 .417-.157v-.388h-.427v.166zM7.337 30.998h-.199v.984h.69v-.167h-.49v-.817zM9.426 30.998h-.199v.984h.199v-.984zM11.469 31.656l-.403-.657h-.193v.984h.185v-.643l.395.643h.198v-.984h-.182v.657zM13.315 31.549h.49v-.167h-.49v-.216h.528v-.167h-.727v.984h.747v-.167h-.548v-.266zM17.792 31.387h-.388v-.388h-.198v.984h.198v-.43h.388v.43h.198v-.984h-.198v.388zM19.649 31.549h.492v-.167h-.492v-.216h.529v-.167h-.727v.984h.746v-.167h-.548v-.266zM22.168 31.549c.171-.027.258-.117.258-.274a.236.236 0 0 0-.096-.219.553.553 0 0 0-.288-.058h-.417v.984h.198v-.412h.039a.261.261 0 0 1 .123.022.21.21 0 0 1 .07.072l.215.313h.237l-.12-.192a.685.685 0 0 0-.218-.236zm-.199-.136h-.146v-.247h.156a.526.526 0 0 1 .201.023c.014.013.026.029.033.046a.133.133 0 0 1-.005.111.128.128 0 0 1-.037.043.547.547 0 0 1-.201.023zM24.067 31.549h.49v-.167h-.49v-.216h.529v-.167h-.729v.984h.747v-.167h-.548v-.266z"/></symbol><symbol id="icon-twitter" viewBox="0 0 32 32"><path fill="#afb1b8" style="fill:var(--color1)" d="M32 6.078c-1.1.493-2.376.857-3.713 1.028l-.068.007a6.556 6.556 0 0 0 2.873-3.579l.013-.046a12.88 12.88 0 0 1-4.076 1.573l-.084.014A6.558 6.558 0 0 0 15.6 9.557v.004c0 .52.043 1.021.152 1.496-5.454-.266-10.28-2.88-13.522-6.861a6.524 6.524 0 0 0-.902 3.313v.001a6.57 6.57 0 0 0 2.914 5.451 6.453 6.453 0 0 1-2.994-.823l.033.017v.072a6.592 6.592 0 0 0 5.213 6.44l.043.008a6.403 6.403 0 0 1-1.662.215h-.061.003c-.419 0-.843-.024-1.242-.112.85 2.598 3.261 4.509 6.13 4.57a13.093 13.093 0 0 1-8.122 2.8H1.57h.001-.062c-.531 0-1.055-.034-1.569-.099l.061.006c2.826 1.846 6.287 2.944 10.004 2.944h.063-.003c12.072 0 18.672-10 18.672-18.669 0-.288-.01-.57-.024-.848a13.203 13.203 0 0 0 3.258-3.355l.03-.047z"/></symbol><symbol id="icon-radar" viewBox="0 0 30 32"><path fill="#212121" style="fill:var(--color3, #212121)" d="m29.859 22.098-8.443-8.505.937-4.616c.225.09.485.144.758.146h.033a2.16 2.16 0 1 0-2.029-1.42l-.005-.015-4.96.606L8.059.161a.53.53 0 0 0-.376-.16.536.536 0 0 0-.373.155L5.798 1.66a.535.535 0 0 0 0 .754l.814.825c-1.143 2.062-1.816 4.522-1.816 7.139 0 4.106 1.656 7.824 4.336 10.525l-.001-.001a.49.49 0 0 0 .146.097 2.986 2.986 0 0 0-.052.546v6.188h-6.4a2.669 2.669 0 0 0-2.667 2.666v1.067c0 .295.239.534.534.534h24.534a.534.534 0 0 0 .533-.534v-1.067a2.67 2.67 0 0 0-2.666-2.666h-6.4v-2.742a14.784 14.784 0 0 0 10.166-1.502l-.077.039.818.823a.534.534 0 0 0 .376.16.536.536 0 0 0 .373-.155l1.512-1.504a.535.535 0 0 0 0-.754zM22.366 6.233a1.067 1.067 0 1 1 .752 1.822h-.004a1.066 1.066 0 0 1-.747-1.822h-.002zM21.11 9.737l-.598 2.946-1.175-1.183 1.774-1.763zm-.606-.902-1.92 1.909-1.486-1.493 3.406-.416zM23.09 28.8a1.6 1.6 0 0 1 1.6 1.6v.534H1.224V30.4a1.6 1.6 0 0 1 1.6-1.6h20.267zm-7.467-2.134v1.067h-5.334v-1.067h5.334zM10.29 25.6v-4.053c0-1.294 1.196-2.346 2.666-2.346s2.667 1.053 2.667 2.346V25.6H10.29zm6.4-1.696v-2.357c0-1.882-1.675-3.413-3.733-3.413h-.058c-1.353 0-2.54.707-3.213 1.771l-.009.016a13.817 13.817 0 0 1-3.812-9.55c0-2.314.567-4.496 1.569-6.414l-.036.077L26 22.743c-1.823.947-3.979 1.502-6.266 1.502-1.079 0-2.128-.124-3.136-.357l.093.018zm11.289-.684L6.922 2.039l.754-.752 7.935 7.98c.004 0 .006.007.01.01l13.115 13.191-.757.752z"/><path fill="#2196f3" style="fill:var(--color2, #2196f3)" d="M12.961 20.267h-.007a1.6 1.6 0 0 0-.003 3.2h.007a1.6 1.6 0 0 0 .002-3.2zm.373 1.978a.534.534 0 1 1-.378-.912.533.533 0 0 1 .374.911h.005z"/></symbol><symbol id="icon-linkedin" viewBox="0 0 32 32"><path fill="#afb1b8" style="fill:var(--color1)" d="M31.992 32H32V20.262c0-5.741-1.237-10.163-7.947-10.163-3.227 0-5.392 1.77-6.277 3.45h-.093v-2.914h-6.365v21.363h6.627V21.42c0-2.786.528-5.48 3.978-5.48 3.398 0 3.448 3.179 3.448 5.658V32h6.621zM.528 10.635h6.635V32H.528V10.635zM3.843 0A3.843 3.843 0 0 0 0 3.843c0 2.12 1.722 3.878 3.843 3.878 2.12 0 3.842-1.757 3.842-3.878S5.965.002 3.844 0z"/></symbol><symbol id="icon-mail" viewBox="0 0 32 32"><path fill="#2196f3" style="fill:var(--color2)" d="M29 4H3C1.346 4 0 5.346 0 7v18c0 1.654 1.346 3 3 3h26c1.654 0 3-1.346 3-3V7c0-1.654-1.346-3-3-3zm0 2c.136 0 .266.028.384.078L16 17.678 2.616 6.078A.971.971 0 0 1 3 6h26zm0 20H3a1 1 0 0 1-1-1V8.19l13.344 11.566a.997.997 0 0 0 1.313-.001l-.001.001L30 8.19V25a1 1 0 0 1-1 1z"/></symbol><symbol id="icon-diagram" viewBox="0 0 32 32"><path fill="#2196f3" style="fill:var(--color2, #2196f3)" d="M14.926 14.965h1.066v4.798h-1.066v-4.798zm4.264 2.132h1.066v2.665H19.19v-2.665zm-8.529 1.599h1.066v1.066h-1.066v-1.066zm-3.198-.533h1.066v1.599H7.463v-1.599z"/><path fill="#212121" style="fill:var(--color3, #212121)" d="M1.599 28.291h25.586a1.6 1.6 0 0 0 1.599-1.599V24.56a1.6 1.6 0 0 0-1.599-1.599h-.533V9.667l3.028-2.868a1.608 1.608 0 1 0-.742-.752l-.004-.01-2.281 2.162v-1.23a1.6 1.6 0 0 0-1.599-1.599H3.731a1.6 1.6 0 0 0-1.599 1.599v15.992h-.533A1.6 1.6 0 0 0 0 24.56v2.132a1.6 1.6 0 0 0 1.599 1.599zM30.384 4.837a.533.533 0 0 1 0 1.066.533.533 0 0 1 0-1.066zM3.198 6.969c0-.294.239-.533.533-.533h21.323c.294 0 .533.239.533.533v2.239l-1.066 1.013V8.036a.534.534 0 0 0-.534-.534H4.798a.534.534 0 0 0-.534.533v13.327c0 .294.239.533.534.533h19.189a.534.534 0 0 0 .534-.533v-9.675l1.066-1.01V22.96H3.198V6.969zm4.798 6.93h-.005a1.6 1.6 0 1 0 1.112 2.748l1.853.93a.535.535 0 0 0 .636-.122l3.939-4.432 3.872 2.902a.534.534 0 0 0 .686-.039l3.365-3.188v8.131H5.331V8.568h18.123v2.661l-3.771 3.572-3.904-2.927a.534.534 0 0 0-.718.071v.001l-3.993 4.493-1.493-.746c.011-.064.017-.128.02-.193a1.6 1.6 0 0 0-1.599-1.599zm.533 1.599a.533.533 0 0 1-1.066 0 .533.533 0 0 1 1.066 0zm3.198 8.528h5.33v.533a.533.533 0 0 1-.533.533h-4.265a.533.533 0 0 1-.533-.533v-.533zm-10.66.534c0-.294.238-.533.533-.533h9.062v.533a1.6 1.6 0 0 0 1.599 1.599h4.265a1.6 1.6 0 0 0 1.599-1.599v-.533h9.062c.294 0 .533.239.533.533v2.132a.533.533 0 0 1-.533.533H1.601a.533.533 0 0 1-.533-.533V24.56z"/></symbol><symbol id="icon-facebook" viewBox="0 0 32 32"><path fill="#afb1b8" style="fill:var(--color1)" d="M21.328 5.312h2.923V.224A36.483 36.483 0 0 0 20.143 0h-.156.008c-4.213 0-7.099 2.65-7.099 7.52V12H8.25v5.688h4.646V32h5.699V17.69h4.459l.707-5.688h-5.168V8.08c0-1.643.443-2.768 2.734-2.768z"/></symbol><symbol id="icon-instagram" viewBox="0 0 32 32"><path fill="#afb1b8" style="fill:var(--color1)" d="M31.968 9.408c-.074-1.701-.349-2.869-.742-3.882a7.839 7.839 0 0 0-1.85-2.837l-.001-.001A7.906 7.906 0 0 0 26.597.861l-.054-.018C25.524.449 24.362.176 22.661.101 20.949.019 20.405 0 16.059 0c-4.344 0-4.888.019-6.595.094-1.699.074-2.869.349-3.88.742a7.847 7.847 0 0 0-2.839 1.85l-.001.001A7.9 7.9 0 0 0 .919 5.465l-.018.054C.506 6.538.232 7.7.157 9.401c-.082 1.712-.101 2.256-.101 6.602 0 4.344.019 4.888.094 6.595.075 1.701.35 2.869.744 3.882a7.915 7.915 0 0 0 1.849 2.837l.001.001c.8.813 1.77 1.443 2.832 1.843 1.019.395 2.182.67 3.882.744 1.707.075 2.251.094 6.595.094 4.346 0 4.89-.019 6.595-.094 1.701-.074 2.869-.349 3.882-.742a8.237 8.237 0 0 0 4.664-4.628l.019-.055c.394-1.019.669-2.182.744-3.882.075-1.707.093-2.251.093-6.595s-.006-4.888-.08-6.595zm-2.88 13.066c-.07 1.563-.333 2.406-.55 2.97a5.341 5.341 0 0 1-3.004 3.024l-.036.012c-.56.219-1.411.482-2.968.55-1.688.075-2.194.094-6.464.094-4.269 0-4.782-.019-6.464-.094-1.563-.069-2.406-.331-2.97-.55a4.953 4.953 0 0 1-1.836-1.192l-.001-.001a4.978 4.978 0 0 1-1.184-1.803L3.6 25.45c-.218-.563-.48-1.413-.549-2.97-.075-1.688-.094-2.195-.094-6.464 0-4.27.019-4.784.094-6.464.069-1.563.331-2.406.549-2.97a4.897 4.897 0 0 1 1.198-1.837l.002-.002a4.972 4.972 0 0 1 1.806-1.182l.034-.011c.56-.219 1.411-.48 2.968-.55 1.688-.074 2.195-.093 6.464-.093 4.275 0 4.782.019 6.464.093 1.563.069 2.406.331 2.97.55a4.91 4.91 0 0 1 1.837 1.194c.531.52.938 1.144 1.195 1.84.218.56.48 1.411.549 2.968.075 1.688.094 2.194.094 6.464 0 4.269-.019 4.768-.094 6.458z"/><path fill="#afb1b8" style="fill:var(--color1)" d="M16.059 7.782a8.223 8.223 0 0 0-8.219 8.221 8.223 8.223 0 0 0 16.442.008v-.009a8.223 8.223 0 0 0-8.221-8.221zm0 13.552a5.333 5.333 0 0 1 .001-10.666h.001a5.334 5.334 0 1 1 0 10.668zM26.525 7.458a1.92 1.92 0 0 1-3.84 0 1.92 1.92 0 0 1 3.84 0z"/></symbol><symbol id="icon-clock" viewBox="0 0 32 32"><path fill="#212121" style="fill:var(--color3, #212121)" d="M31.296 15.301C31.295 6.849 24.441-.002 15.988 0S.685 6.855.687 15.308c.002 6.788 4.422 12.543 10.541 14.545l.108.031a.667.667 0 0 0 .529-.065.636.636 0 0 0 .283-.357l3.865-12.25a1.913 1.913 0 1 0-.852-3.63l.011-.005-5.106-5.107a.638.638 0 0 0-.902.902l5.103 5.109a1.847 1.847 0 0 0-.191.826c0 .602.283 1.137.723 1.48l.004.003-3.682 11.673C3.843 25.782.117 17.709 2.797 10.431S13.551-.573 20.829 2.108c7.278 2.681 11.004 10.754 8.323 18.032-1.345 3.581-4.003 6.406-7.374 7.938l-.088.036-.398-1.874a.639.639 0 0 0-1.05-.343l.001-.001-3.837 3.426a.637.637 0 0 0 .227 1.083l.005.001 4.899 1.563a.637.637 0 0 0 .818-.744l.001.004-.391-1.839c5.528-2.374 9.329-7.772 9.329-14.057v-.034.002zm-15.304-.637a.638.638 0 0 1 0 1.276.638.638 0 0 1 0-1.276zm2.1 14.864 2.184-1.948.603 2.84-2.787-.892z"/><path fill="#2196f3" style="fill:var(--color2, #2196f3)" d="M15.354 3.185V4.46a.638.638 0 0 0 1.276 0V3.185a.638.638 0 1 0-1.276 0zM3.876 14.664a.638.638 0 0 0 0 1.276h1.275a.638.638 0 0 0 0-1.276H3.876zm24.232 1.275a.638.638 0 0 0 0-1.276h-1.275a.638.638 0 0 0 0 1.276h1.275z"/></symbol><symbol id="icon-mobile" viewBox="0 0 32 32"><path fill="#757575" style="fill:var(--color4)" d="M23 0H9C7.346 0 6 1.346 6 3v26c0 1.654 1.346 3 3 3h14c1.654 0 3-1.346 3-3V3c0-1.654-1.346-3-3-3zM9 2h14a1 1 0 0 1 1 1v21H8V3a1 1 0 0 1 1-1zm14 28H9a1 1 0 0 1-1-1v-3h16v3a1 1 0 0 1-1 1z"/></symbol><symbol id="icon-astronaut" viewBox="0 0 32 32"><path fill="#2196f3" style="fill: var(--color2, #2196f3)" d="M31.974 4.524c-0.064-0.191-0.227-0.332-0.427-0.362l-0.003-0-1.911-0.278-0.855-1.731c-0.179-0.365-0.777-0.365-0.956 0l-0.855 1.731-1.911 0.278c-0.26 0.039-0.457 0.26-0.457 0.528 0 0.15 0.062 0.285 0.161 0.382l1.383 1.348-0.326 1.903c-0.034 0.2 0.048 0.402 0.212 0.522 0.166 0.12 0.383 0.135 0.562 0.040l1.709-0.899 1.709 0.899c0.072 0.038 0.157 0.061 0.247 0.061 0.295 0 0.534-0.239 0.534-0.534 0-0.031-0.003-0.062-0.008-0.092l0 0.003-0.326-1.903 1.383-1.348c0.099-0.097 0.161-0.233 0.161-0.382 0-0.059-0.009-0.115-0.027-0.168l0.001 0.004zM29.511 5.851c-0.126 0.122-0.183 0.299-0.153 0.472l0.191 1.114-1-0.526c-0.072-0.039-0.158-0.062-0.249-0.062s-0.177 0.023-0.252 0.063l0.003-0.001-1 0.526 0.191-1.114c0.005-0.027 0.008-0.059 0.008-0.091 0-0.149-0.061-0.285-0.16-0.381l-0-0-0.811-0.79 1.119-0.162c0.174-0.025 0.324-0.134 0.402-0.292l0.5-1.013 0.5 1.013c0.078 0.158 0.228 0.267 0.402 0.292l1.119 0.162-0.809 0.79zM26.134 20.522h-1.067v1.067h1.067v-1.067zM26.134 22.656h-1.067v1.066h1.067v-1.066zM27.2 21.589h-1.067v1.067h1.067v-1.067zM25.067 21.589h-1.067v1.067h1.067v-1.067zM22.4 26.389h-1.067v1.067h1.067v-1.067zM22.4 28.523h-1.067v1.067h1.067v-1.067zM23.467 27.456h-1.067v1.067h1.067v-1.067zM21.334 27.456h-1.067v1.067h1.067v-1.067zM16 24.256h-1.066v1.067h1.066v-1.067zM16 26.389h-1.066v1.067h1.066v-1.067zM17.067 25.322h-1.067v1.067h1.067v-1.067zM14.934 25.322h-1.067v1.067h1.067v-1.067zM5.867 6.122h-1.066v1.066h1.066v-1.066zM5.867 8.256h-1.066v1.066h1.066v-1.066zM6.933 7.189h-1.067v1.067h1.066v-1.067zM4.8 7.189h-1.067v1.067h1.067v-1.067z"></path><path fill="#212121" style="fill: var(--color3, #212121)" d="M24.715 14.16c-0.28-0.376-0.698-0.636-1.179-0.703l-0.009-0.001c-0.076-0.012-0.164-0.018-0.254-0.018-0.411 0-0.789 0.139-1.090 0.373l0.004-0.003-1.253 0.96-1.898 1.417-1.358-0.541c2.421-1.086 4.113-3.508 4.113-6.32 0-3.823-3.122-6.934-6.961-6.934s-6.961 3.11-6.961 6.934c0 1.386 0.415 2.674 1.12 3.759l-2.768-0.024c-0.009 0-0.016 0.005-0.023 0.005-0.057 0.003-0.11 0.014-0.159 0.033l0.004-0.001c-0.013 0.005-0.026 0.007-0.038 0.013-0.006 0.003-0.013 0.003-0.019 0.006l-3.233 1.596c-0 0-0.001 0-0.001 0.001l-1.893 0.91c-0.024 0.011-0.045 0.023-0.065 0.036l0.001-0.001c-0.482 0.324-0.795 0.867-0.795 1.483 0 0.297 0.073 0.577 0.201 0.823l-0.005-0.010c0.22 0.424 0.592 0.742 1.043 0.885l0.013 0.003c0.161 0.053 0.345 0.083 0.537 0.083 0.308 0 0.598-0.078 0.851-0.216l-0.009 0.005 1.388-0.738 2.264-1.169 1.357-0.008-5.442 5.415c0 0.001-0.001 0.001-0.001 0.001l-1.339 1.333c-0.303 0.299-0.491 0.714-0.491 1.173 0 0.002 0 0.003 0 0.005v-0c0.002 0.919 0.748 1.664 1.667 1.664 0.001 0 0.002 0 0.002 0h-0c0.428 0 0.854-0.162 1.18-0.485l1.314-1.309 1.741-1.3 0.901 0.897-3.102 3.088c-0.303 0.299-0.491 0.714-0.491 1.173 0 0.001 0 0.003 0 0.004v-0c0 0.445 0.174 0.864 0.49 1.179 0.302 0.3 0.717 0.485 1.176 0.485 0.001 0 0.002 0 0.003 0h-0c0.427 0 0.855-0.162 1.18-0.485l4.488-4.472c0.007-0.006 0.016-0.009 0.022-0.016l5.166-5.658 3.471 0.494c0.025 0.004 0.050 0.006 0.075 0.006 0.064 0 0.127-0.016 0.187-0.038 0.017-0.006 0.032-0.015 0.049-0.023 0.019-0.010 0.039-0.015 0.058-0.027l3.213-2.133c0.012-0.008 0.018-0.021 0.029-0.030 0.013-0.010 0.029-0.014 0.041-0.026l1.271-1.191c0.348-0.326 0.564-0.787 0.564-1.3 0-0.4-0.132-0.769-0.355-1.066l0.003 0.005zM2.13 17.77c-0.098 0.054-0.215 0.086-0.34 0.086-0.078 0-0.153-0.013-0.224-0.036l0.005 0.001c-0.294-0.093-0.504-0.364-0.504-0.683 0-0.235 0.114-0.444 0.289-0.575l0.002-0.001 1.314-0.632 0.316 0.924 0.133 0.389-0.992 0.527zM5.627 15.942l-1.548 0.8-0.255-0.746-0.184-0.537 2.027-1.001-0.040 1.484zM20.727 9.322c0 0.918-0.219 1.785-0.599 2.56l-4.181-1.899c-0.044-0.575-0.342-1.072-0.782-1.384l-0.006-0.004 1.464-4.861c2.377 0.757 4.104 2.975 4.104 5.588zM8.938 9.322c0-3.235 2.644-5.867 5.894-5.867 0.253 0 0.5 0.022 0.745 0.053l-1.432 4.753c-0.019 0-0.037-0.006-0.057-0.006-0 0-0.001 0-0.001 0-1.032 0-1.869 0.835-1.872 1.867v0c0.003 1.031 0.84 1.867 1.872 1.867 0 0 0 0 0.001 0h-0c0.695 0 1.295-0.383 1.618-0.944l3.863 1.755c-1.075 1.447-2.795 2.39-4.737 2.39-3.25 0-5.894-2.632-5.894-5.867zM14.895 10.122c0 0.441-0.362 0.8-0.806 0.8-0 0-0.001 0-0.001 0-0.443 0-0.802-0.358-0.804-0.8v-0c0-0.441 0.361-0.8 0.806-0.8s0.806 0.359 0.806 0.8zM2.464 25.146c-0.11 0.109-0.261 0.176-0.428 0.176s-0.317-0.067-0.427-0.175l0 0c-0.109-0.108-0.176-0.257-0.176-0.422s0.067-0.314 0.176-0.422l0-0 0.962-0.959 0.852 0.848-0.959 0.954zM5.678 28.88c-0.11 0.109-0.261 0.176-0.428 0.176s-0.317-0.067-0.427-0.175l0 0c-0.109-0.108-0.176-0.257-0.176-0.422s0.067-0.314 0.176-0.422l0-0 0.963-0.959 0.852 0.848-0.96 0.955zM9.16 25.411l-0.001 0.001-1.765 1.76-0.852-0.848 1.765-1.757c0.040-0.040 0.065-0.088 0.090-0.136 0.007-0.014 0.020-0.026 0.026-0.040 0.016-0.041 0.019-0.085 0.026-0.128 0.003-0.025 0.014-0.048 0.014-0.073 0-0.035-0.013-0.070-0.020-0.105-0.006-0.032-0.006-0.064-0.019-0.096-0.025-0.053-0.055-0.098-0.092-0.138l0 0c-0.010-0.012-0.014-0.026-0.025-0.038h-0.001s0-0.001-0.001-0.002l-1.607-1.6c-0.017-0.017-0.039-0.024-0.058-0.038-0.025-0.021-0.054-0.040-0.084-0.056l-0.003-0.001c-0.026-0.012-0.058-0.023-0.090-0.031l-0.003-0.001c-0.030-0.009-0.065-0.017-0.101-0.020l-0.002-0c-0.007-0-0.015-0-0.023-0-0.026 0-0.051 0.002-0.075 0.005l0.003-0c-0.036 0.005-0.069 0.009-0.104 0.021s-0.064 0.027-0.094 0.045c-0.020 0.011-0.043 0.015-0.061 0.029l-1.774 1.324-0.901-0.897 2.399-2.386 4.36 4.289-0.928 0.919zM15.979 18.394c-0.016-0.002-0.030 0.004-0.046 0.003-0.008-0-0.017-0.001-0.027-0.001-0.031 0-0.062 0.003-0.092 0.008l0.003-0c-0.070 0.011-0.132 0.035-0.187 0.070l0.002-0.001c-0.030 0.018-0.057 0.037-0.083 0.061-0.013 0.011-0.028 0.016-0.040 0.029l-4.698 5.146-4.328-4.256 2.833-2.818c0.096-0.097 0.156-0.23 0.156-0.377 0-0.295-0.239-0.534-0.534-0.534-0.001 0-0.001 0-0.002 0h0l-2.219 0.013 0.028-1.607 3.104 0.027c1.264 1.297 3.027 2.101 4.978 2.101 0.001 0 0.002 0 0.003 0h-0c0.438 0 0.864-0.046 1.28-0.122 0.040 0.032 0.080 0.064 0.129 0.085l2.41 0.96 0.152 0.758 0.178 0.886-3.003-0.427zM20.020 18.572l-0.313-1.558 1.446-1.080 0.946 1.257-2.080 1.381zM23.773 15.741l-0.837 0.785-0.931-1.236 0.831-0.637c0.155-0.119 0.351-0.168 0.543-0.143 0.193 0.027 0.364 0.128 0.48 0.284 0.088 0.117 0.141 0.265 0.141 0.426 0 0.206-0.087 0.391-0.226 0.521l-0 0z"></path><path fill="#212121" style="fill: var(--color3, #212121)" d="M13.602 18.544l-2.143-2.134c-0.096-0.096-0.229-0.155-0.376-0.155s-0.28 0.059-0.376 0.155l-2.143 2.133c-0.097 0.097-0.156 0.23-0.156 0.378s0.060 0.281 0.156 0.378l-0-0 2.142 2.134c0.096 0.096 0.229 0.156 0.376 0.156s0.28-0.059 0.376-0.156v0l2.143-2.134c0.097-0.097 0.157-0.23 0.157-0.378s-0.060-0.281-0.157-0.378l-0-0zM11.083 20.303l-1.387-1.381 1.386-1.381 1.387 1.381-1.387 1.381zM17.164 5.071l-0.258 1.036c0.071 0.018 1.738 0.452 1.738 2.149h1.067c0-2.017-1.666-2.965-2.547-3.184zM19.711 9.322h-1.067v1.066h1.067v-1.066z"></path></symbol></defs></svg>